# xmcd CD database file
# Copyright (C) 1997 Ti Kan
# 
# Track frame offsets:
#     150
#     31548
#     55310
#     64725
#     88508
#     102178
#     127048
#     150375
#     165863
#     195320
#     207788
#     231135
# 
# Disc length: 3432 seconds
# 
# Revision: 1
# Processed by: cddbd v1.4b41PL1 Copyright (c) Steve Scherf et al.
# Submitted via: DiscPlay 4.0.4
# 
DISCID=880d660c
DTITLE=Lightnin' Hopkins with Sonny Terry, Brownie McGhee, and Big Joe Willi
DTITLE=ams - Down South Summit Meeting
DYEAR=1900
DGENRE=
TTITLE0=Big Black Cadillac Blues
TTITLE1=Early In The Mornin' Blues
TTITLE2=Coffee House Blues
TTITLE3=I've Been 'Buked and Scorned
TTITLE4=Stool Pidgeon Blues
TTITLE5=Brand New Car
TTITLE6=Drinkin' In The Blues
TTITLE7=Ball Of Twine
TTITLE8=Everybody's Blue
TTITLE9=Right On That Shore
TTITLE10=Chain Gang Blues
TTITLE11=Blowin' The Fuses
EXTD=
EXTT0=
EXTT1=
EXTT2=
EXTT3=
EXTT4=
EXTT5=
EXTT6=
EXTT7=
EXTT8=
EXTT9=
EXTT10=
EXTT11=
PLAYORDER=
